<svg id="レイヤー_1" data-name="レイヤー 1" xmlns="http://www.w3.org/2000/svg" viewBox="0 0 189.42 48"><defs><style>.cls-1{fill:#343433;}</style></defs><path class="cls-1" d="M152,21.9a14,14,0,0,1-1.3,5.58c-1.27,2.55-3.91,3.34-5-.33a20.7,20.7,0,0,1-.21-8.13c.45-2.85,1.7-5,3.77-4.8s3,2.82,2.77,7.68ZM117.63,36.74c0,4-.65,7.46-2,8.47-1.9,1.44-4.46.36-3.93-2.54.47-2.57,2.68-5.19,5.93-8.39C117.64,34.28,117.65,35,117.63,36.74Zm-.52-14.87a15.79,15.79,0,0,1-1.29,5.61c-1.28,2.55-3.93,3.35-5-.33a18.53,18.53,0,0,1-.2-7.81c.49-2.66,1.66-5.12,3.77-5.12S117.4,16.47,117.11,21.87Zm-19.91,0a14,14,0,0,1-1.3,5.64c-1.3,2.53-3.89,3.34-5-.33a19.71,19.71,0,0,1-.2-8.19c.51-2.89,1.78-4.93,3.76-4.74s3,2.82,2.77,7.62Zm91.25,2.69c-.5,0-.72.52-.91,1.38-.65,3-1.34,3.69-2.22,3.69s-1.88-1.49-2.11-4.47a99.27,99.27,0,0,1,.08-10.95c.05-.88-.19-1.75-2.56-2.61-1-.37-2.49-.91-3.23.86a44.38,44.38,0,0,0-3.09,10.63c0,.09-.11.1-.13-.09a85.13,85.13,0,0,1-.43-8.61,2.56,2.56,0,0,0-1.27-2.46c-.7-.44-2.8-1.21-3.55-.29a19.16,19.16,0,0,0-2.21,5.17c-.64,1.95-1.09,3.27-1.09,3.27s0-5.26,0-7.25a1,1,0,0,0-.67-1.05,13.57,13.57,0,0,0-2.66-.55c-.73,0-.9.41-.9,1,0,.07-.12,6.92-.12,11.71v.68c-.4,2.2-1.69,5.18-3.11,5.18s-2.07-1.24-2.07-6.95c0-3.33.1-4.78.15-7.19,0-1.39.08-2.45.08-2.69,0-.75-1.3-1.12-1.89-1.26a5.69,5.69,0,0,0-1.53-.17,1,1,0,0,0-1,.93v.81A5.43,5.43,0,0,0,149.32,11a5.25,5.25,0,0,0-6,2.28,14,14,0,0,0-2.46,7,21,21,0,0,0,.26,6.39c-.5,2.15-1.42,3-2.43,3-1.47,0-2.54-2.39-2.41-6.54a37.29,37.29,0,0,1,1.22-7.42,2.41,2.41,0,0,0-.47-2.39c-.48-.54-1.49-.82-2.95-.48-1,.25-2.52.51-3.88.71a6.27,6.27,0,0,0,.15-.9c.36-3-2.93-2.78-4-1.82a3.71,3.71,0,0,0-1.22,2.48,3,3,0,0,0,1.33,2.86A29.48,29.48,0,0,1,123.33,24a34.38,34.38,0,0,1-1.93,3q0-5.7.07-11.4c0-1.39.09-2.42.08-2.67,0-.54-.32-.74-1-1a7.09,7.09,0,0,0-2-.45c-.91-.07-1.45.41-1.43,1v.76A5.47,5.47,0,0,0,114.43,11a5.24,5.24,0,0,0-6.05,2.28,15.13,15.13,0,0,0-2.46,7,21.32,21.32,0,0,0,.13,6c-.34,1.68-1.32,3.43-2.42,3.43-1.41,0-2.22-1.24-2.22-6.95,0-3.33.1-4.78.15-7.19,0-1.39.08-2.45.08-2.69,0-.75-1.29-1.12-1.89-1.26a5.58,5.58,0,0,0-1.57-.16,1,1,0,0,0-.93.89v.84A5.51,5.51,0,0,0,94.52,11a5.26,5.26,0,0,0-6,2.28c-1.1,1.53-2,3.22-2.46,7a23.65,23.65,0,0,0-.18,3.05c-.44,2.7-2.39,5.8-4,5.8-.93,0-1.82-1.8-1.82-5.65,0-5.13.32-12.44.37-13.14l2.4,0c1,0,1.91,0,3.25-.05.67,0,1.32-2.44.62-2.74a23.34,23.34,0,0,0-3.4-.27c-.74,0-2.8-.17-2.8-.17s.19-4.85.23-5.36-.52-.65-.83-.78A11.21,11.21,0,0,0,77.59.29c-1.13-.23-1.64,0-1.74,1-.15,1.44-.23,5.67-.23,5.67-.82,0-3.65-.16-4.48-.16s-1.6,3.31-.54,3.35c1.23.05,3.36.09,4.77.13,0,0-.06,7.43-.06,9.72v.7a11.15,11.15,0,0,1-3.52,6.25c.59-2.68-.61-4.7-2.77-6.4-.8-.63-2.38-1.82-4.14-3.13a10.6,10.6,0,0,0,1.93-3c.64-1.43.66-3.07-.91-3.43a4.71,4.71,0,0,0-5.39,3.35,3.9,3.9,0,0,0,.74,4l.23.27c-.59,1.13-1.39,2.66-2.08,3.84-1.89,3.28-3.32,5.87-4.41,5.87-.86,0-.85-2.63-.85-5.1,0-2.12.16-5.32.28-8.63A2.39,2.39,0,0,0,53,12.2a6.32,6.32,0,0,0-2.44-1c-1,0-4,.14-6.82,8.27-.35,1-1.05,2.9-1.05,2.9l.06-9.79a.67.67,0,0,0-.4-.6,6.89,6.89,0,0,0-2.86-.78c-.54,0-.81.25-.81.74l-.1,15.31a21.56,21.56,0,0,0,.15,3.11,3.16,3.16,0,0,0,.53,1.36,1.5,1.5,0,0,0,.93.6c.41.08,2.64.37,2.76-.48a30.51,30.51,0,0,1,1.31-6.25c1.82-6.41,4.2-9.54,5.32-10.66.19-.19.42-.2.41.12-.05,1.4-.22,4.92-.33,7.9-.3,8,1.15,9.47,3.23,9.47,1.59,0,3.83-1.57,6.23-5.57q2-3.34,4-6.7c.73.68,1.55,1.4,2.36,2.18,1.9,1.8,2.52,3.51,2.11,5.13C67.26,28.68,66.07,30,64,28.72c-.62-.36-.89-.64-1.51-1a1.05,1.05,0,0,0-1.14-.06,4.07,4.07,0,0,0-1.51,2.3c-.25.92.67,1.4,1.62,1.83a12.79,12.79,0,0,0,3.7.73c4.37.15,7.88-2.11,10.32-7.94.43,5,2.29,7.88,5.52,7.88,2.16,0,4.32-2.79,5.27-5.54a9.66,9.66,0,0,0,1.19,2.92c2.49,3.94,7.32,3.09,9.74-.25A6.63,6.63,0,0,0,98,28.13a4.55,4.55,0,0,0,4.35,4.26c1.63,0,3.32-.77,4.5-3.43a9.32,9.32,0,0,0,.45.83c2.49,3.94,7.32,3.09,9.74-.25.12-.16.22-.3.3-.43l.07,2.07-2.23,2c-3.74,3.43-6.58,6-6.79,9.06-.27,3.86,2.86,5.3,5.24,5.49a6.71,6.71,0,0,0,6-3.14c1.17-1.71,1.93-5.4,1.87-9,0-1.46-.06-3.31-.08-5.3a42,42,0,0,0,4.15-5.71,42.36,42.36,0,0,0,3.89-8.33s1.38,0,2.86-.08c.47,0,.61.07.52.41s-1.86,7.2-.26,11.72a5.68,5.68,0,0,0,5,4.09,5,5,0,0,0,4.25-3.23c.11.22.22.43.34.62,2.49,3.94,7.29,3.09,9.74-.25a10.12,10.12,0,0,0,.86-1.41,4.73,4.73,0,0,0,4.52,4.28c1.52,0,3-.62,4.13-3.39a12.62,12.62,0,0,0,.25,2.53c.07.19.5.43.82.55a6.41,6.41,0,0,0,3.33.17c.36-.08.64-.37.68-1.12a44.09,44.09,0,0,1,.64-7.76,22.86,22.86,0,0,1,2.38-6.53c.25-.45.53-.52.54-.05,0,1,.07,3.75.46,7.51a17.42,17.42,0,0,0,1,4.92,2.71,2.71,0,0,0,2.72,1.55c.53,0,1.65-.15,1.55-1.09a30,30,0,0,1,1-7.37A36.37,36.37,0,0,1,179,16.38c.15-.32.21-.07.21,0-.08,1.84-.26,7.83.48,11.11,1,4.44,3.94,4.94,5,4.94,2.18,0,4-1.66,4.56-6C189.31,25.34,189.09,24.53,188.45,24.53Z"/><path class="cls-1" d="M.89,29.16a12.62,12.62,0,0,0,.25,2.53c.07.19.51.43.82.55a6.27,6.27,0,0,0,3.33.16c.36-.07.64-.36.68-1.11a44.09,44.09,0,0,1,.64-7.76A22.26,22.26,0,0,1,9,17c.25-.45.53-.52.54-.05,0,.95.06,3.75.45,7.51a17.42,17.42,0,0,0,1,4.92,2.72,2.72,0,0,0,2.72,1.55c.53,0,1.66-.15,1.55-1.09a30.62,30.62,0,0,1,1-7.37,36.14,36.14,0,0,1,2.12-5.95c.14-.32.21-.07.2,0-.08,1.84-.26,7.83.48,11.11,1,4.44,3.95,4.94,5,4.94,2.17,0,4-1.66,4.56-6,.14-1.05-.07-1.86-.72-1.86-.49,0-.72.52-.91,1.38-.65,3-1.34,3.69-2.22,3.69s-1.88-1.49-2.11-4.47a101.84,101.84,0,0,1,.08-10.95c.05-.88-.19-1.75-2.56-2.61-1-.37-2.49-.91-3.23.86A44.88,44.88,0,0,0,13.82,23.2c0,.09-.11.1-.13-.09a83.29,83.29,0,0,1-.42-8.61A2.59,2.59,0,0,0,12,12c-.69-.44-2.8-1.21-3.55-.29a19.16,19.16,0,0,0-2.21,5.17c-.64,1.95-1.08,3.27-1.08,3.27s0-5.26,0-7.26a1,1,0,0,0-.67-1,13.57,13.57,0,0,0-2.66-.55c-.73,0-.9.41-.9,1,0,.07-.12,6.92-.12,11.71v.68"/><path class="cls-1" d="M26.4,2a6.77,6.77,0,0,1,.83-.57c.23-.14.47-.26.71-.38a6.54,6.54,0,0,1,.95-.39,5,5,0,0,1,1-.21h0a4.19,4.19,0,0,1,4.66,3.24C35.15,6.3,34,5.66,32,5.8s-2.85,0-4-1.13S26,3.26,26.4,2"/><path class="cls-1" d="M39.12,21.29a1.72,1.72,0,0,1,.19-.49,1.44,1.44,0,0,1,1.18-.72,1.46,1.46,0,0,1,1.24.63,2.87,2.87,0,0,1,0,2.4,23.79,23.79,0,0,1-3.39,7.54,4.58,4.58,0,0,1-2.1,1.73,5.74,5.74,0,0,1-1.6.18,8.2,8.2,0,0,1-1.72-.09,6.39,6.39,0,0,1-3.19-2,8.05,8.05,0,0,1-1.61-2.32A9.73,9.73,0,0,1,27.5,25c-.16-2.28-.15-4.58-.14-6.87l0-5.41a5.52,5.52,0,0,1,.16-1.57,2.2,2.2,0,0,1,.41-.75.9.9,0,0,1,.62-.39A2.7,2.7,0,0,0,29,10a3.41,3.41,0,0,1,.46,0,3.89,3.89,0,0,1,.9,0,6.17,6.17,0,0,1,1.77.6,8.86,8.86,0,0,1,1.28.8,1.56,1.56,0,0,1,.41.4,1.56,1.56,0,0,1,.11,1L33.41,18c-.26,2.64-.5,5.4.47,7.87a2.25,2.25,0,0,0,1.35,1.51,2.24,2.24,0,0,0,2.09-1A7.63,7.63,0,0,0,39,22.22C39,21.91,39.06,21.59,39.12,21.29Z"/></svg>